<svg width="24" height="24" viewBox="0 0 24 24" fill="none" xmlns="http://www.w3.org/2000/svg">
<path d="M12.8369 3.00171C15.51 1.99875 18.49 1.99875 21.1631 3.00171C22.0979 3.3525 22.7498 4.22243 22.75 5.22925V19.0798C22.7498 20.5944 21.1679 21.4929 19.832 20.9919C18.0151 20.3101 15.9849 20.3101 14.168 20.9919L12.2773 21.7009C12.1897 21.7338 12.095 21.7471 12 21.7449C11.905 21.7471 11.8103 21.7338 11.7227 21.7009L9.83203 20.9919C8.0151 20.3101 5.9849 20.3101 4.16797 20.9919C2.83213 21.4929 1.25024 20.5944 1.25 19.0798V5.22925C1.25018 4.22243 1.90215 3.3525 2.83691 3.00171C5.50996 1.99875 8.49004 1.99875 11.1631 3.00171L12 3.31519L12.8369 3.00171ZM10.6367 4.40698C8.30321 3.53133 5.69679 3.53133 3.36328 4.40698C2.96974 4.55486 2.75018 4.89376 2.75 5.22925V19.0798C2.75028 19.4086 3.15305 19.771 3.6416 19.5876C5.79826 18.7784 8.20174 18.7784 10.3584 19.5876L11.25 19.9216V4.63647L10.6367 4.40698ZM20.6367 4.40698C18.3032 3.53133 15.6968 3.53133 13.3633 4.40698L12.75 4.63647V19.9216L13.6416 19.5876C15.7983 18.7784 18.2017 18.7784 20.3584 19.5876C20.8469 19.771 21.2497 19.4086 21.25 19.0798V5.22925C21.2498 4.89376 21.0303 4.55486 20.6367 4.40698Z" fill="#1A1A1C"/>
</svg>
