<svg width="24" height="24" viewBox="0 0 24 24" fill="none" xmlns="http://www.w3.org/2000/svg">
<path d="M10.9424 1.62842C11.6192 1.34646 12.3808 1.34646 13.0576 1.62842L17.2881 3.39111L22.2881 5.4751C22.5675 5.59159 22.75 5.86476 22.75 6.16748V17.1675C22.7497 17.8737 22.3247 18.5111 21.6729 18.7827L12.2881 22.6929C12.1038 22.7695 11.8962 22.7695 11.7119 22.6929L2.32715 18.7827C1.67525 18.5111 1.25031 17.8737 1.25 17.1675V6.16748C1.25 5.86476 1.43252 5.59159 1.71191 5.4751L10.9424 1.62842ZM2.75 17.1675C2.75031 17.2681 2.81137 17.3592 2.9043 17.3979L11.25 20.8755V10.8325L6.71191 8.94287L2.75 7.2915V17.1675ZM12.75 10.8325V20.8755L21.0957 17.3979C21.1886 17.3592 21.2497 17.2681 21.25 17.1675V7.2915L12.75 10.8325ZM8.94922 8.24951L12 9.521L20.0498 6.1665L16.999 4.89502L8.94922 8.24951ZM12.4805 3.01318C12.173 2.88515 11.827 2.88515 11.5195 3.01318L3.94922 6.1665L6.99902 7.43799L15.0498 4.0835L12.4805 3.01318Z" fill="#1A1A1C"/>
</svg>
