<svg width="24" height="24" viewBox="0 0 24 24" fill="none" xmlns="http://www.w3.org/2000/svg">
<path d="M16.5 1.25C16.9142 1.25 17.25 1.58579 17.25 2V2.75H21.75V22.25H2.25V2.75H6.75V2C6.75 1.58579 7.08579 1.25 7.5 1.25C7.91421 1.25 8.25 1.58579 8.25 2V2.75H15.75V2C15.75 1.58579 16.0858 1.25 16.5 1.25ZM3.75 20.75H20.25V9.25H3.75V20.75ZM7.5 15.75C7.91421 15.75 8.24999 16.0858 8.25 16.5C8.25 16.9142 7.91421 17.25 7.5 17.25H6.5C6.08579 17.25 5.75 16.9142 5.75 16.5C5.75001 16.0858 6.08579 15.75 6.5 15.75H7.5ZM12.5 15.75C12.9142 15.75 13.25 16.0858 13.25 16.5C13.25 16.9142 12.9142 17.25 12.5 17.25H11.5C11.0858 17.25 10.75 16.9142 10.75 16.5C10.75 16.0858 11.0858 15.75 11.5 15.75H12.5ZM17.5 15.75C17.9142 15.75 18.25 16.0858 18.25 16.5C18.25 16.9142 17.9142 17.25 17.5 17.25H16.5C16.0858 17.25 15.75 16.9142 15.75 16.5C15.75 16.0858 16.0858 15.75 16.5 15.75H17.5ZM7.5 11.75C7.91421 11.75 8.24999 12.0858 8.25 12.5C8.25 12.9142 7.91421 13.25 7.5 13.25H6.5C6.08579 13.25 5.75 12.9142 5.75 12.5C5.75001 12.0858 6.08579 11.75 6.5 11.75H7.5ZM12.5 11.75C12.9142 11.75 13.25 12.0858 13.25 12.5C13.25 12.9142 12.9142 13.25 12.5 13.25H11.5C11.0858 13.25 10.75 12.9142 10.75 12.5C10.75 12.0858 11.0858 11.75 11.5 11.75H12.5ZM17.5 11.75C17.9142 11.75 18.25 12.0858 18.25 12.5C18.25 12.9142 17.9142 13.25 17.5 13.25H16.5C16.0858 13.25 15.75 12.9142 15.75 12.5C15.75 12.0858 16.0858 11.75 16.5 11.75H17.5ZM3.75 7.75H20.25V4.25H17.25V5C17.25 5.41421 16.9142 5.75 16.5 5.75C16.0858 5.75 15.75 5.41421 15.75 5V4.25H8.25V5C8.25 5.41421 7.91421 5.75 7.5 5.75C7.08579 5.75 6.75 5.41421 6.75 5V4.25H3.75V7.75Z" fill="#1A1A1C"/>
</svg>
