<svg width="24" height="24" viewBox="0 0 24 24" fill="none" xmlns="http://www.w3.org/2000/svg">
<path d="M4.53851 3.87207C5.73559 2.67526 7.67463 2.73011 8.86859 3.92383L10.8618 5.91699C12.0554 7.11083 12.111 9.04996 10.9145 10.2471L10.6381 10.5234C10.4299 10.7317 10.407 11.0697 10.6049 11.3096C11.022 11.815 11.4696 12.3158 11.9526 12.7988C12.4356 13.2818 12.9364 13.7294 13.4418 14.1465C13.6817 14.3442 14.0198 14.3214 14.228 14.1133L14.5043 13.8369C15.7015 12.6404 17.6406 12.6958 18.8344 13.8896L20.8276 15.8828C22.0211 17.0768 22.0761 19.0159 20.8793 20.2129L19.5932 21.5C18.2856 22.8076 16.1453 22.7011 14.0639 21.9375C11.9176 21.1499 9.52169 19.5671 7.35297 17.3984C5.18423 15.2297 3.60152 12.8339 2.8139 10.6875C2.05019 8.60601 1.94369 6.46592 3.2514 5.1582L4.53851 3.87207ZM7.80804 4.98535C7.16756 4.34487 6.17862 4.35333 5.59906 4.93262L4.31293 6.21973C3.66633 6.86633 3.50135 8.20647 4.22211 10.1709C4.9191 12.0702 6.36403 14.2865 8.41449 16.3369C10.4649 18.3873 12.6812 19.8323 14.5805 20.5293C16.5447 21.2499 17.8851 21.085 18.5317 20.4385L19.8188 19.1523C20.398 18.5728 20.4063 17.5838 19.7661 16.9434L17.7739 14.9502C17.1335 14.3098 16.1445 14.3185 15.5649 14.8975L15.2885 15.1748C14.5376 15.9256 13.327 15.9969 12.4868 15.3037C11.9505 14.8612 11.4138 14.3812 10.892 13.8594C10.3702 13.3376 9.89023 12.8009 9.44769 12.2646C8.75434 11.4244 8.82571 10.2139 9.5766 9.46289H9.57758L9.85394 9.18652C10.4328 8.60698 10.4414 7.6179 9.80121 6.97754L7.80804 4.98535ZM20.4692 3.46973C20.7621 3.17683 21.2378 3.17683 21.5307 3.46973C21.8233 3.76255 21.8233 4.23743 21.5307 4.53027L19.56 6.5L21.5307 8.46973C21.8233 8.76255 21.8233 9.23743 21.5307 9.53027C21.2378 9.82317 20.7621 9.82317 20.4692 9.53027L18.4995 7.56055L16.5297 9.53027C16.2368 9.8229 15.762 9.82308 15.4692 9.53027C15.1766 9.23745 15.1766 8.76255 15.4692 8.46973L17.4389 6.5L15.4692 4.53027C15.1767 4.23743 15.1766 3.76253 15.4692 3.46973C15.762 3.17694 16.2368 3.17715 16.5297 3.46973L18.4995 5.43848L20.4692 3.46973Z" fill="#1A1A1C"/>
</svg>
