<svg width="24" height="24" viewBox="0 0 24 24" fill="none" xmlns="http://www.w3.org/2000/svg">
<path d="M4.53851 3.12109C5.73559 1.92428 7.67463 1.97913 8.86859 3.17285L10.8618 5.16602C12.0554 6.35986 12.111 8.29898 10.9145 9.49609L10.6381 9.77246C10.4299 9.98069 10.407 10.3187 10.6049 10.5586C11.022 11.064 11.4696 11.5648 11.9526 12.0479C12.4356 12.5308 12.9364 12.9784 13.4418 13.3955C13.6817 13.5932 14.0198 13.5705 14.228 13.3623L14.5043 13.0859C15.7015 11.8894 17.6406 11.9448 18.8344 13.1387L20.8276 15.1318C22.0211 16.3258 22.0761 18.2649 20.8793 19.4619L19.5932 20.749C18.2856 22.0567 16.1453 21.9501 14.0639 21.1865C11.9176 20.3989 9.52169 18.8161 7.35297 16.6475C5.18423 14.4787 3.60152 12.0829 2.8139 9.93652C2.05019 7.85503 1.94369 5.71495 3.2514 4.40723L4.53851 3.12109ZM7.80804 4.23438C7.16756 3.59389 6.17862 3.60236 5.59906 4.18164L4.31293 5.46875C3.66633 6.11535 3.50135 7.4555 4.22211 9.41992C4.9191 11.3192 6.36403 13.5355 8.41449 15.5859C10.4649 17.6363 12.6812 19.0814 14.5805 19.7783C16.5447 20.4989 17.8851 20.3341 18.5317 19.6875L19.8188 18.4014C20.398 17.8219 20.4063 16.8329 19.7661 16.1924L17.7739 14.1992C17.1335 13.5589 16.1445 13.5675 15.5649 14.1465L15.2885 14.4238C14.5376 15.1746 13.327 15.2459 12.4868 14.5527C11.9505 14.1102 11.4138 13.6302 10.892 13.1084C10.3702 12.5866 9.89023 12.0499 9.44769 11.5137C8.75434 10.6735 8.82571 9.46293 9.5766 8.71191H9.57758L9.85394 8.43555C10.4328 7.856 10.4414 6.86692 9.80121 6.22656L7.80804 4.23438Z" fill="#1A1A1C"/>
</svg>
