<svg width="24" height="24" viewBox="0 0 24 24" fill="none" xmlns="http://www.w3.org/2000/svg">
<path d="M4.53853 3.87219C5.7356 2.67532 7.67463 2.73021 8.86861 3.92395L10.8618 5.91711C12.0554 7.11098 12.111 9.05011 10.9145 10.2472L10.6381 10.5236C10.4299 10.7318 10.407 11.0698 10.6049 11.3097C11.022 11.8151 11.4696 12.316 11.9526 12.799C12.4356 13.2819 12.9365 13.7296 13.4418 14.1466C13.6817 14.3443 14.0198 14.3215 14.228 14.1134L14.5043 13.837C15.7015 12.6404 17.6406 12.6959 18.8344 13.8898L20.8276 15.8829C22.0211 17.0769 22.0761 19.016 20.8793 20.213L19.5932 21.5001C18.2856 22.8077 16.1453 22.7012 14.0639 21.9376C11.9176 21.1501 9.52168 19.5672 7.35298 17.3986C5.18428 15.2299 3.60155 12.834 2.81392 10.6876C2.05021 8.60613 1.9437 6.46605 3.25142 5.15833L4.53853 3.87219ZM7.80806 4.98547C7.16756 4.34497 6.17862 4.35339 5.59908 4.93274L4.31294 6.21985C3.66635 6.86645 3.50136 8.20659 4.22212 10.171C4.91913 12.0703 6.36408 14.2866 8.41451 16.337C10.4649 18.3874 12.6813 19.8325 14.5805 20.5294C16.5447 21.25 17.8851 21.0851 18.5317 20.4386L19.8188 19.1525C20.3981 18.573 20.4063 17.584 19.7661 16.9435L17.7739 14.9503C17.1335 14.3099 16.1445 14.3186 15.5649 14.8976L15.2885 15.1749C14.5376 15.9257 13.327 15.9969 12.4868 15.3038C11.9505 14.8613 11.4138 14.3813 10.892 13.8595C10.3703 13.3377 9.89022 12.801 9.44771 12.2648C8.75436 11.4246 8.82573 10.214 9.57661 9.46301H9.57759L9.85396 9.18665C10.4329 8.60713 10.4413 7.61805 9.80122 6.97766L7.80806 4.98547ZM14.312 6.76672C14.4774 6.38709 14.9196 6.21372 15.2993 6.37903C15.9413 6.65885 16.5425 7.06077 17.0659 7.58411C17.6207 8.13892 18.0388 8.78139 18.3198 9.46692C18.4766 9.84991 18.2943 10.2872 17.9116 10.4445C17.5284 10.6015 17.0903 10.4183 16.9331 10.0353C16.7261 9.53052 16.417 9.05632 16.0053 8.64465C15.6169 8.2563 15.1733 7.96006 14.7006 7.75403C14.321 7.58856 14.1466 7.14639 14.312 6.76672ZM14.2944 3.40833C14.4354 3.01905 14.866 2.8174 15.2553 2.95813C16.691 3.47828 18.0378 4.31482 19.187 5.46399C20.3649 6.64205 21.214 8.02694 21.7309 9.50305C21.8678 9.89396 21.6618 10.3222 21.271 10.4591C20.88 10.596 20.4518 10.3901 20.3149 9.99915C19.8708 8.73096 19.1418 7.53998 18.1264 6.52454C17.1358 5.53396 15.9779 4.81611 14.7446 4.36926C14.3553 4.22823 14.1536 3.79765 14.2944 3.40833Z" fill="#1A1A1C"/>
</svg>
