<svg width="24" height="24" viewBox="0 0 24 24" fill="none" xmlns="http://www.w3.org/2000/svg">
<path d="M14.5043 13.0859C15.6641 11.9267 17.52 11.9426 18.7202 13.0303L18.8344 13.1387L20.8276 15.1318C22.0211 16.3258 22.0761 18.2649 20.8793 19.4619L19.5932 20.749C18.5535 21.7887 16.9782 21.9277 15.3793 21.5762C13.7565 21.2193 11.9284 20.3266 10.1371 19.0303C9.8016 18.7874 9.72632 18.318 9.96918 17.9824C10.212 17.6473 10.6807 17.572 11.0161 17.8145C12.6962 19.0304 14.337 19.8112 15.7016 20.1113C17.0901 20.4166 18.0226 20.1966 18.5317 19.6875L19.8188 18.4014C20.398 17.8219 20.4063 16.8329 19.7661 16.1924L17.7729 14.1992C17.1325 13.5592 16.1444 13.5676 15.5649 14.1465L15.2885 14.4238C14.959 14.7533 14.5392 14.9523 14.103 15.0127C13.6927 15.0693 13.314 14.7823 13.2573 14.3721C13.2006 13.9618 13.4876 13.5831 13.8979 13.5264C14.0201 13.5093 14.1364 13.4538 14.228 13.3623L14.5043 13.0859ZM4.53851 3.12109C5.73559 1.92428 7.67463 1.97913 8.86859 3.17285L10.8618 5.16602C12.0554 6.35986 12.111 8.29898 10.9145 9.49609L10.6381 9.77246C10.4299 9.98069 10.407 10.3187 10.6049 10.5586C11.0131 11.0532 11.4502 11.5432 11.9213 12.0166L19.4692 4.46973C19.762 4.17693 20.2368 4.17713 20.5297 4.46973C20.8226 4.76262 20.8226 5.23738 20.5297 5.53027L5.5307 20.5303C5.23781 20.8232 4.76207 20.8232 4.46918 20.5303C4.17666 20.2374 4.17663 19.7625 4.46918 19.4697L7.32172 16.6162C5.16891 14.4557 3.59776 12.0726 2.8139 9.93652C2.05019 7.85503 1.94369 5.71495 3.2514 4.40723L4.53851 3.12109ZM7.80804 4.23438C7.16756 3.59389 6.17862 3.60236 5.59906 4.18164L4.31293 5.46875C3.66633 6.11535 3.50135 7.4555 4.22211 9.41992C4.91558 11.3097 6.34922 13.5129 8.38324 15.5547L10.8608 13.0771C10.351 12.5651 9.88144 12.0393 9.44769 11.5137C8.75434 10.6735 8.82571 9.46293 9.5766 8.71191H9.57758L9.85394 8.43555C10.4328 7.856 10.4414 6.86692 9.80121 6.22656L7.80804 4.23438Z" fill="#1A1A1C"/>
</svg>
