<svg width="24" height="24" viewBox="0 0 24 24" fill="none" xmlns="http://www.w3.org/2000/svg">
<path d="M8.49994 18.4999C9.32834 18.4999 9.9999 19.1715 9.99994 19.9999C9.99994 20.8283 9.32837 21.4999 8.49994 21.4999C7.67154 21.4998 6.99994 20.8283 6.99994 19.9999C6.99997 19.1715 7.67156 18.4999 8.49994 18.4999ZM17.4999 18.4999C18.3283 18.4999 18.9999 19.1715 18.9999 19.9999C18.9999 20.8283 18.3284 21.4999 17.4999 21.4999C16.6715 21.4998 15.9999 20.8283 15.9999 19.9999C16 19.1715 16.6716 18.4999 17.4999 18.4999ZM1.26459 2.85242C1.34601 2.44651 1.7414 2.18337 2.1474 2.26453L3.19623 2.47449C4.38145 2.71153 5.27319 3.69465 5.39349 4.89734L5.47845 5.74988H19.0546C21.0386 5.75017 22.4938 7.61509 22.0126 9.53992L20.8906 14.0311C20.4175 15.9228 18.7174 17.2497 16.7675 17.2499H7.77435C6.38249 17.2498 5.20995 16.2099 5.04388 14.828L4.0556 6.58972L4.05365 6.5741L3.90131 5.04675C3.84661 4.50012 3.44097 4.05296 2.90228 3.94519L1.85248 3.73523C1.44656 3.65379 1.18338 3.25844 1.26459 2.85242ZM6.53314 14.6493C6.60874 15.2773 7.14179 15.7498 7.77435 15.7499H16.7675C18.0293 15.7497 19.1295 14.891 19.4355 13.6669L20.5576 9.17566C20.802 8.19757 20.0627 7.25017 19.0546 7.24988H5.64545L6.53314 14.6493ZM12.9999 12.7499C13.4141 12.7499 13.7499 13.0857 13.7499 13.4999C13.7499 13.9141 13.4142 14.2499 12.9999 14.2499H8.99994C8.58575 14.2498 8.24994 13.9141 8.24994 13.4999C8.24997 13.0857 8.58578 12.7499 8.99994 12.7499H12.9999Z" fill="#1A1A1C"/>
</svg>
