<svg width="24" height="24" viewBox="0 0 24 24" fill="none" xmlns="http://www.w3.org/2000/svg">
<path d="M13.334 2.25C14.8525 2.25034 16.084 3.48143 16.084 5V5.67871H20C21.5188 5.67871 22.75 6.90993 22.75 8.42871V10.083C22.75 10.8445 22.4365 11.5495 21.916 12.0557V17C21.9159 19.6233 19.7893 21.75 17.166 21.75H6.83301C4.2099 21.7498 2.08311 19.6231 2.08301 17V12.0537C1.56345 11.5476 1.25 10.8438 1.25 10.083V8.42871C1.25 6.90994 2.48123 5.67873 4 5.67871H7.91699V5C7.91699 3.48122 9.14821 2.25 10.667 2.25H13.334ZM13.3652 14.9453C12.4749 15.2124 11.5251 15.2124 10.6348 14.9453L3.58301 12.8291V17C3.58311 18.7947 5.03833 20.2498 6.83301 20.25H17.166C18.9609 20.25 20.4159 18.7948 20.416 17V12.8291L13.3652 14.9453ZM4 7.17871C3.30966 7.17873 2.75 7.73837 2.75 8.42871V10.083C2.75 10.6349 3.11208 11.1215 3.64062 11.2803L11.0664 13.5088C11.6753 13.6914 12.3247 13.6914 12.9336 13.5088L20.3594 11.2803C20.8879 11.1216 21.25 10.6349 21.25 10.083V8.42871C21.25 7.73836 20.6904 7.17871 20 7.17871H4ZM12 9.10742C12.4142 9.10742 12.75 9.44321 12.75 9.85742V11.5713C12.75 11.9855 12.4142 12.3213 12 12.3213C11.5858 12.3213 11.25 11.9855 11.25 11.5713V9.85742C11.25 9.44322 11.5858 9.10744 12 9.10742ZM10.667 3.75C9.97664 3.75 9.41699 4.30964 9.41699 5V5.67871H14.584V5C14.584 4.30986 14.024 3.75034 13.334 3.75H10.667Z" fill="#1A1A1C"/>
</svg>
