<svg width="24" height="24" viewBox="0 0 24 24" fill="none" xmlns="http://www.w3.org/2000/svg">
<path d="M22.75 22.75H1.25V1.25H22.75V22.75ZM2.75 21.25H21.25V2.75H2.75V21.25ZM8 13.25C8.41421 13.25 8.75 13.5858 8.75 14V17C8.75 17.4142 8.41421 17.75 8 17.75C7.58579 17.75 7.25 17.4142 7.25 17V14C7.25 13.5858 7.58579 13.25 8 13.25ZM12 6.25C12.4142 6.25 12.75 6.58579 12.75 7V17C12.75 17.4142 12.4142 17.75 12 17.75C11.5858 17.75 11.25 17.4142 11.25 17V7C11.25 6.58579 11.5858 6.25 12 6.25ZM16 9.25C16.4142 9.25 16.75 9.58579 16.75 10V17C16.75 17.4142 16.4142 17.75 16 17.75C15.5858 17.75 15.25 17.4142 15.25 17V10C15.25 9.58579 15.5858 9.25 16 9.25Z" fill="#1A1A1C"/>
</svg>
