<svg width="24" height="24" viewBox="0 0 24 24" fill="none" xmlns="http://www.w3.org/2000/svg">
<path d="M11.0977 2.41455C11.693 2.2955 12.307 2.2955 12.9023 2.41455C14.2249 2.67916 15.3644 3.51204 16.0195 4.69092L22.2061 15.8257C22.5628 16.4678 22.7499 17.1907 22.75 17.9253C22.75 20.3133 20.8138 22.2495 18.4258 22.2495H5.57422C3.18619 22.2495 1.25 20.3133 1.25 17.9253C1.25013 17.1907 1.43722 16.4678 1.79395 15.8257L7.98047 4.69092C8.63565 3.51204 9.77514 2.67916 11.0977 2.41455ZM12.6074 3.88623C12.2064 3.80607 11.7936 3.80607 11.3926 3.88623C10.5013 4.06448 9.73252 4.62496 9.29102 5.41943L3.10547 16.5542C2.87253 16.9735 2.75013 17.4456 2.75 17.9253C2.75 19.4849 4.01462 20.7495 5.57422 20.7495H18.4258C19.9854 20.7495 21.25 19.4849 21.25 17.9253C21.2499 17.4456 21.1275 16.9735 20.8945 16.5542L14.709 5.41943C14.2675 4.62496 13.4987 4.06448 12.6074 3.88623ZM12 15.2495C12.4141 15.2495 12.7498 15.5855 12.75 15.9995V16.4995C12.75 16.9137 12.4142 17.2495 12 17.2495C11.5858 17.2495 11.25 16.9137 11.25 16.4995V15.9995C11.2502 15.5855 11.5859 15.2495 12 15.2495ZM12 8.24951C12.4141 8.24951 12.7498 8.5855 12.75 8.99951V12.9995C12.75 13.4137 12.4142 13.7495 12 13.7495C11.5858 13.7495 11.25 13.4137 11.25 12.9995V8.99951C11.2502 8.5855 11.5859 8.24951 12 8.24951Z" fill="#1A1A1C"/>
</svg>
