<svg width="24" height="24" viewBox="0 0 24 24" fill="none" xmlns="http://www.w3.org/2000/svg">
<path d="M13.5136 3.80615C14.5871 2.73136 16.3279 2.72991 17.4013 3.80322L19.8945 6.29639C20.9584 7.36069 20.968 9.08392 19.9169 10.1626L10.6855 19.6353C9.97946 20.3596 9.01064 20.768 7.99994 20.7681H5.24701C3.96874 20.7678 2.94835 19.7025 3.00189 18.4243L3.12006 15.6147C3.15971 14.6754 3.55051 13.784 4.21478 13.1187L13.5136 3.80615ZM20.5146 19.1938C20.9286 19.1939 21.2645 19.5306 21.2646 19.9448C21.2645 20.3591 20.9286 20.6948 20.5146 20.6948H14.3935C13.9795 20.6948 13.6436 20.3591 13.6435 19.9448C13.6436 19.5306 13.9795 19.1938 14.3935 19.1938H20.5146ZM5.27533 14.1792C4.87675 14.5784 4.64187 15.1136 4.6181 15.6772L4.50092 18.4868C4.48331 18.9127 4.82296 19.268 5.24896 19.2681H8.00092C8.60738 19.2681 9.18858 19.022 9.61224 18.5874L16.1425 11.8853L11.8505 7.59229L5.27533 14.1792ZM16.3408 4.86572C15.8528 4.3779 15.0611 4.37814 14.5732 4.8667L12.9101 6.53076L17.1904 10.811L18.8437 9.11572C19.3212 8.62552 19.3172 7.84265 18.8339 7.35889L16.3408 4.86572Z" fill="#1A1A1C"/>
</svg>
