<svg width="24" height="24" viewBox="0 0 24 24" fill="none" xmlns="http://www.w3.org/2000/svg">
<path d="M12 3.25C12.4142 3.25 12.75 3.5858 12.75 4C12.75 4.41421 12.4142 4.75 12 4.75H8C5.6528 4.75 3.75002 6.65281 3.75 9V17C3.75 19.3472 5.65279 21.25 8 21.25H16C18.3472 21.25 20.25 19.3472 20.25 17V13C20.25 12.5858 20.5858 12.25 21 12.25C21.4142 12.25 21.75 12.5858 21.75 13V17C21.75 20.1756 19.1756 22.75 16 22.75H8C4.82436 22.75 2.25 20.1756 2.25 17V9C2.25002 5.82438 4.82437 3.25 8 3.25H12ZM16.5459 2.72168C17.5098 1.76033 19.0734 1.75914 20.0381 2.71973L22.2764 4.94922C23.2326 5.90163 23.2427 7.44365 22.2988 8.4082L14.9033 15.9873C14.2696 16.6348 13.3998 17 12.4922 17H10.0205C8.87142 17 7.95363 16.0455 8.00195 14.9014L8.1084 12.3896C8.14387 11.5497 8.49364 10.7529 9.08984 10.1582L16.5459 2.72168ZM10.043 11.1074C9.68538 11.4641 9.47546 11.9415 9.4541 12.4453L9.34766 14.958C9.33155 15.3394 9.63748 15.6572 10.0205 15.6572L12.4922 15.6582C13.0368 15.6582 13.5582 15.4383 13.9385 15.0498L18.9082 9.94922L15.0527 6.10938L10.043 11.1074ZM19.0859 3.66992C18.6475 3.23326 17.9362 3.23293 17.498 3.66992L16.0049 5.16016L19.8486 8.98828L21.334 7.4707C21.7631 7.03225 21.759 6.33137 21.3242 5.89844L19.0859 3.66992Z" fill="#1A1A1C"/>
</svg>
