<svg width="24" height="24" viewBox="0 0 24 24" fill="none" xmlns="http://www.w3.org/2000/svg">
<path d="M13.3301 2.38416C13.8607 2.15834 14.4079 2.53466 14.4912 3.04138L14.502 3.15173L14.5244 3.50623C14.6958 5.24313 15.7428 6.40227 16.9961 7.8822C18.3089 9.43252 19.75 11.2571 19.75 14.2504C19.7498 18.4178 16.2541 21.7504 12 21.7504C7.74585 21.7504 4.2502 18.4178 4.25 14.2504C4.25 11.5361 5.74766 9.10062 7.96973 7.78357C8.5311 7.45096 9.15008 7.84006 9.24121 8.38123L9.25195 8.49158L9.27148 8.77966C9.31165 9.16776 9.40606 9.48152 9.52344 9.73474C9.57194 9.0693 9.67234 8.26791 9.87793 7.43201C10.3115 5.66971 11.2365 3.6249 13.2168 2.44177L13.3301 2.38416ZM13.1465 4.37146C12.195 5.2803 11.6438 6.53499 11.335 7.79041C10.9474 9.36607 10.972 10.8196 10.9912 11.2572C11.0157 11.8189 10.4329 12.3607 9.79395 12.0599C9.32617 11.8396 8.30414 11.1802 7.91016 9.66345C6.58766 10.7809 5.75 12.4452 5.75 14.2504C5.7502 17.5384 8.5224 20.2504 12 20.2504C15.4776 20.2504 18.2498 17.5384 18.25 14.2504C18.25 11.8281 17.1304 10.3621 15.8516 8.85193C14.8009 7.61126 13.5642 6.27454 13.1465 4.37146Z" fill="#1A1A1C"/>
</svg>
