<svg width="24" height="24" viewBox="0 0 24 24" fill="none" xmlns="http://www.w3.org/2000/svg">
<path d="M16.4277 4.27954C19.8125 3.94106 22.7497 6.59865 22.75 10.0002V16.0002C22.7498 20.3443 17.0727 21.9911 14.748 18.3215C13.6642 16.6102 11.1881 16.5528 10.0264 18.2122L9.74219 18.6184C7.1251 22.3569 1.25042 20.505 1.25 15.9417V10.0012C1.25 6.5994 4.18732 3.94105 7.57227 4.27954L11.4775 4.67017C11.8249 4.7049 12.1751 4.7049 12.5225 4.67017L16.4277 4.27954ZM21.25 10.0002C21.2497 7.4861 19.0789 5.52158 16.5771 5.77173L12.6719 6.16235C12.2252 6.20702 11.7748 6.20702 11.3281 6.16235L7.42285 5.77173C4.92096 5.52157 2.75 7.48684 2.75 10.0012V15.9417C2.75042 19.0383 6.73657 20.2948 8.5127 17.7581L8.79688 17.3518C10.5726 14.815 14.3588 14.9028 16.0156 17.5188C17.5365 19.919 21.2498 18.8419 21.25 16.0002V10.0002ZM8 8.72583C8.41421 8.72583 8.75 9.06162 8.75 9.47583V10.7258H10C10.4142 10.7258 10.75 11.0616 10.75 11.4758C10.7499 11.8899 10.4141 12.2258 10 12.2258H8.75V13.4758C8.74987 13.8899 8.41413 14.2258 8 14.2258C7.58586 14.2258 7.25013 13.8899 7.25 13.4758V12.2258H6C5.58586 12.2258 5.25013 11.8899 5.25 11.4758C5.25 11.0616 5.58579 10.7258 6 10.7258H7.25V9.47583C7.25 9.06162 7.58579 8.72583 8 8.72583ZM16 11.9758C16.5523 11.9758 17 12.4235 17 12.9758C16.9999 13.528 16.5522 13.9758 16 13.9758C15.4478 13.9758 15.0001 13.528 15 12.9758C15 12.4235 15.4477 11.9758 16 11.9758ZM18 8.97583C18.5523 8.97583 19 9.42355 19 9.97583C18.9999 10.528 18.5522 10.9758 18 10.9758C17.4478 10.9758 17.0001 10.528 17 9.97583C17 9.42355 17.4477 8.97583 18 8.97583Z" fill="#1A1A1C"/>
</svg>
