<svg width="24" height="24" viewBox="0 0 24 24" fill="none" xmlns="http://www.w3.org/2000/svg">
<path d="M9.90905 4.31848C10.9681 4.18546 11.7499 5.06289 11.7499 6.00012V11.5001C11.7499 11.9142 12.0858 12.2501 12.4999 12.2501H17.9999C18.9371 12.2501 19.8145 13.0319 19.6815 14.0909C19.5126 15.4349 19.0333 16.7269 18.2753 17.8615C17.3138 19.3002 15.9472 20.4219 14.3485 21.0841C12.7497 21.7463 10.9901 21.9198 9.29284 21.5822C7.59554 21.2445 6.03606 20.4113 4.81237 19.1876C3.58869 17.9639 2.75547 16.4044 2.41784 14.7072C2.08024 13.0099 2.25368 11.2503 2.91589 9.65149C3.57813 8.05276 4.69974 6.68616 6.13854 5.72473C7.27307 4.96666 8.56509 4.48738 9.90905 4.31848ZM10.0956 5.80676C8.98214 5.94676 7.91146 6.34377 6.97155 6.9718C5.77947 7.76843 4.85031 8.90108 4.30163 10.2257C3.75301 11.5503 3.60986 13.008 3.88952 14.4142C4.16928 15.8205 4.85901 17.1132 5.87292 18.1271C6.88682 19.141 8.17948 19.8307 9.58581 20.1105C10.992 20.3901 12.4497 20.247 13.7743 19.6984C15.0989 19.1497 16.2316 18.2205 17.0282 17.0284C17.6562 16.0885 18.0532 15.0178 18.1932 13.9044C18.1974 13.8712 18.1893 13.8431 18.161 13.8136C18.1286 13.7799 18.0722 13.7501 17.9999 13.7501H12.4999C11.2573 13.7501 10.2499 12.7427 10.2499 11.5001V6.00012C10.2499 5.92776 10.2201 5.87143 10.1864 5.83899C10.1569 5.81066 10.1288 5.80258 10.0956 5.80676ZM15.1034 2.32922C15.7416 2.42103 16.3674 2.59213 16.9657 2.83997C17.906 3.22944 18.7607 3.8 19.4803 4.51965C20.2 5.23931 20.7706 6.09403 21.16 7.0343C21.4079 7.63264 21.579 8.25843 21.6708 8.89661C21.8248 9.96806 20.9321 10.7501 19.9999 10.7501H14.9999C14.0335 10.7501 13.2499 9.96652 13.2499 9.00012V4.00012C13.2499 3.06792 14.0319 2.17517 15.1034 2.32922ZM14.8505 3.81653C14.8407 3.81986 14.8265 3.82648 14.8114 3.84094C14.7794 3.87158 14.7499 3.92752 14.7499 4.00012V9.00012C14.7499 9.13809 14.8619 9.25005 14.9999 9.25012H19.9999C20.0725 9.25012 20.1284 9.22055 20.159 9.1886C20.1735 9.17348 20.1801 9.15933 20.1835 9.14954C20.1863 9.14107 20.1891 9.12932 20.1864 9.11047C20.1124 8.59585 19.9741 8.09102 19.7743 7.60852C19.4602 6.85024 18.9992 6.16154 18.4188 5.58118C17.8384 5.00081 17.1498 4.5398 16.3915 4.22571C15.909 4.02587 15.4041 3.88762 14.8895 3.8136C14.8707 3.81093 14.8589 3.81368 14.8505 3.81653Z" fill="#1A1A1C"/>
</svg>
