<svg width="24" height="24" viewBox="0 0 24 24" fill="none" xmlns="http://www.w3.org/2000/svg">
<path d="M12 1.25C17.9371 1.25 22.75 6.06294 22.75 12C22.75 17.9371 17.9371 22.75 12 22.75C6.06294 22.75 1.25 17.9371 1.25 12C1.25 6.06294 6.06294 1.25 12 1.25ZM12 2.75C6.89137 2.75 2.75 6.89137 2.75 12C2.75 17.1086 6.89137 21.25 12 21.25C17.1086 21.25 21.25 17.1086 21.25 12C21.25 6.89137 17.1086 2.75 12 2.75ZM14.0205 8.25C14.297 8.25767 14.5472 8.41764 14.6709 8.66504L16.4639 12.25H18C18.4142 12.25 18.75 12.5858 18.75 13C18.75 13.4142 18.4142 13.75 18 13.75H16C15.7159 13.75 15.4561 13.589 15.3291 13.335L13.9561 10.5889L10.6514 16.3721C10.5224 16.5978 10.2852 16.7411 10.0254 16.75C9.76577 16.7588 9.52008 16.6322 9.37598 16.416L7.59863 13.75H6C5.58579 13.75 5.25 13.4142 5.25 13C5.25 12.5858 5.58579 12.25 6 12.25H8C8.25076 12.25 8.48492 12.3753 8.62402 12.584L9.95117 14.5742L13.3486 8.62793C13.4858 8.38787 13.7441 8.24244 14.0205 8.25Z" fill="#1A1A1C"/>
</svg>
