<svg width="24" height="24" viewBox="0 0 24 24" fill="none" xmlns="http://www.w3.org/2000/svg">
<path d="M3.11963 4.23669C5.55554 1.66972 9.47393 1.59127 12.0005 4.00134C14.5271 1.59134 18.4455 1.66967 20.8813 4.23669C23.3725 6.86256 23.3727 11.1041 20.8813 13.7299L14.7212 20.223C13.2426 21.7813 10.7586 21.781 9.27979 20.223L3.11963 13.7299C0.628039 11.104 0.628039 6.86255 3.11963 4.23669ZM19.7935 5.26892C17.8722 3.24429 14.7742 3.24425 12.853 5.26892C12.3896 5.75719 11.6116 5.75693 11.1479 5.26892C9.22676 3.2442 6.12879 3.24434 4.20752 5.26892C2.26511 7.316 2.26511 10.6505 4.20752 12.6976L10.3687 19.1908C11.2559 20.1251 12.7453 20.1254 13.6323 19.1908L19.7935 12.6976C21.7357 10.6507 21.7355 7.31601 19.7935 5.26892Z" fill="#1A1A1C"/>
</svg>
