<svg width="24" height="24" viewBox="0 0 24 24" fill="none" xmlns="http://www.w3.org/2000/svg">
<path d="M18.934 3.93469C19.2269 3.6418 19.7017 3.6418 19.9946 3.93469C20.2873 4.2276 20.2874 4.70241 19.9946 4.99524L4.99457 19.9943C4.70167 20.2872 4.22691 20.2872 3.93402 19.9943C3.64141 19.7013 3.64122 19.2265 3.93402 18.9337L5.96625 16.9015C5.61186 16.6615 5.27103 16.4032 4.94867 16.1241C3.98018 15.2857 3.1628 14.2771 2.5434 13.1447C2.15334 12.4314 2.15333 11.5688 2.5434 10.8556C4.36937 7.51708 7.91943 5.25012 12.0004 5.25012C12.967 5.25016 13.9054 5.37713 14.7983 5.61633C15.4206 5.7831 16.0208 6.00454 16.5932 6.27454L18.934 3.93469ZM18.4633 8.32239C18.7524 8.02613 19.2273 8.01992 19.5239 8.30872C20.2877 9.05352 20.9413 9.91191 21.4575 10.8556C21.8474 11.5688 21.8474 12.4315 21.4575 13.1447C19.6316 16.4831 16.0813 18.75 12.0004 18.7501C11.074 18.7501 10.1733 18.6335 9.3139 18.4132C8.91279 18.3103 8.6711 17.9013 8.77386 17.5001C8.87676 17.0989 9.28573 16.8572 9.68695 16.9601C10.4255 17.1494 11.2009 17.2501 12.0004 17.2501C15.5123 17.25 18.5692 15.3009 20.142 12.4249C20.2867 12.1603 20.2867 11.84 20.142 11.5753C19.6981 10.7635 19.1351 10.0247 18.477 9.38293C18.1805 9.09376 18.1742 8.61895 18.4633 8.32239ZM12.0004 6.75012C8.4884 6.75012 5.43177 8.69926 3.85883 11.5753C3.71402 11.8401 3.71403 12.1601 3.85883 12.4249C4.38656 13.3898 5.08271 14.2506 5.90668 14.9689L7.07465 15.7921L15.4545 7.41321C15.116 7.27745 14.7675 7.1612 14.4106 7.06555C13.6431 6.85991 12.8349 6.75016 12.0004 6.75012ZM12.0004 8.25012C12.4144 8.25035 12.7504 8.58605 12.7504 9.00012C12.7504 9.41416 12.4144 9.7499 12.0004 9.75012C10.7578 9.75012 9.75043 10.7575 9.75043 12.0001C9.75038 12.4142 9.41442 12.7499 9.00043 12.7501C8.58624 12.7501 8.25047 12.4143 8.25043 12.0001C8.25043 9.92905 9.92936 8.25012 12.0004 8.25012Z" fill="#1A1A1C"/>
</svg>
