<svg width="24" height="24" viewBox="0 0 24 24" fill="none" xmlns="http://www.w3.org/2000/svg">
<path d="M9.05664 2.8678C10.7823 1.50555 13.2177 1.50555 14.9434 2.8678L20.4434 7.20959C21.5843 8.11032 22.2499 9.48451 22.25 10.9381V17.4996C22.25 20.123 20.1234 22.2496 17.5 22.2496H16C15.0335 22.2496 14.25 21.4661 14.25 20.4996V17.4996C14.2498 16.8094 13.6902 16.2496 13 16.2496H11C10.3098 16.2496 9.75017 16.8094 9.75 17.4996V20.4996C9.75 21.4661 8.9665 22.2496 8 22.2496H6.5C3.87665 22.2496 1.75 20.123 1.75 17.4996V10.9381C1.7501 9.48451 2.41572 8.11032 3.55664 7.20959L9.05664 2.8678ZM14.0137 4.04553C12.833 3.11352 11.167 3.11352 9.98633 4.04553L4.48633 8.38733C3.70573 9.00359 3.2501 9.94358 3.25 10.9381V17.4996C3.25 19.2946 4.70507 20.7496 6.5 20.7496H8C8.13807 20.7496 8.25 20.6377 8.25 20.4996V17.4996C8.25017 15.981 9.48132 14.7496 11 14.7496H13C14.5187 14.7496 15.7498 15.981 15.75 17.4996V20.4996C15.75 20.6377 15.8619 20.7496 16 20.7496H17.5C19.2949 20.7496 20.75 19.2946 20.75 17.4996V10.9381C20.7499 9.94358 20.2943 9.00359 19.5137 8.38733L14.0137 4.04553Z" fill="#1A1A1C"/>
</svg>
