<svg width="24" height="24" viewBox="0 0 24 24" fill="none" xmlns="http://www.w3.org/2000/svg">
<path d="M9.38007 1.93701C11.0082 1.02226 12.9921 1.02226 14.6203 1.93701L20.6564 5.32764C22.1142 6.14697 22.1144 8.2546 20.6564 9.07373L19.5764 9.6792L20.2014 10.0181L20.2121 10.0239L20.6564 10.2739C22.1142 11.0933 22.1144 13.1999 20.6564 14.019L19.6857 14.564L20.4504 14.9487C21.9832 15.7206 22.0319 17.9003 20.5363 18.7407L14.6203 22.064C12.9923 22.9786 11.0081 22.9785 9.38007 22.064L3.55096 18.7896C2.02971 17.9349 2.11172 15.7067 3.69452 14.9692L4.42694 14.6274L3.34393 14.019C1.88588 13.1999 1.88593 11.0931 3.34393 10.2739L3.78827 10.0239L4.40546 9.66943L3.34393 9.07373C1.88587 8.25454 1.88591 6.14685 3.34393 5.32764L9.38007 1.93701ZM14.6203 17.4106C12.9923 18.3253 11.0081 18.3252 9.38007 17.4106L6.03729 15.5327L4.32831 16.3286C3.85471 16.5493 3.828 17.2238 4.28534 17.481L10.1154 20.7563C11.2872 21.4145 12.7133 21.4146 13.8849 20.7563L19.801 17.4331C20.2504 17.1806 20.2347 16.52 19.7756 16.2886L18.1086 15.4497L14.6203 17.4106ZM4.5285 11.3286L4.52362 11.3315L4.07831 11.5815C3.64095 11.8275 3.64091 12.4655 4.07831 12.7114L10.1154 16.103C11.2871 16.7611 12.7133 16.7612 13.8849 16.103L19.9221 12.7114C20.3594 12.4655 20.3591 11.8277 19.9221 11.5815L19.4875 11.3374L18.0305 10.5483L14.6203 12.4653C12.9923 13.38 11.0081 13.3799 9.38007 12.4653L5.92889 10.5259L4.5285 11.3286ZM13.8849 3.24463C12.7131 2.58631 11.2872 2.58631 10.1154 3.24463L4.07831 6.63623C3.64099 6.88227 3.64088 7.52018 4.07831 7.76611L10.1154 11.1577C11.2871 11.8157 12.7133 11.8159 13.8849 11.1577L19.9221 7.76611C20.3594 7.52023 20.3591 6.88238 19.9221 6.63623L13.8849 3.24463Z" fill="#1A1A1C"/>
</svg>
