<svg width="24" height="24" viewBox="0 0 24 24" fill="none" xmlns="http://www.w3.org/2000/svg">
<path d="M12.7625 1.91187C13.3405 1.35328 14.3646 1.74612 14.3651 2.60327V9.67065H18.0047C19.0323 9.67076 19.6207 10.8422 19.0076 11.6667L11.3465 21.9626C10.8005 22.6965 9.63485 22.3108 9.63458 21.3962V14.3289H5.99493C4.96738 14.3286 4.37885 13.1573 4.992 12.3328L12.6531 2.03687L12.7625 1.91187ZM6.49298 12.8289H10.1844C10.709 12.8289 11.1345 13.2545 11.1346 13.7791V19.7341L17.5067 11.1707H13.8152C13.2907 11.1706 12.8651 10.7451 12.8651 10.2205V4.2644L6.49298 12.8289Z" fill="#1A1A1C"/>
</svg>
