<svg width="24" height="24" viewBox="0 0 24 24" fill="none" xmlns="http://www.w3.org/2000/svg">
<path d="M5.9848 8.95496C6.27772 8.66232 6.75254 8.66215 7.04535 8.95496C7.33805 9.24777 7.33795 9.72262 7.04535 10.0155L4.92328 12.1366C3.26364 13.7962 3.26382 16.4876 4.92328 18.1473C6.58301 19.8071 9.27429 19.8071 10.934 18.1473L13.0551 16.0262C13.348 15.7334 13.8228 15.7335 14.1157 16.0262C14.4086 16.3191 14.4086 16.7939 14.1157 17.0868L11.9946 19.2079C9.74905 21.4534 6.10825 21.4534 3.86273 19.2079C1.61749 16.9623 1.61731 13.3215 3.86273 11.076L5.9848 8.95496ZM13.0551 8.95496C13.3479 8.66215 13.8227 8.66234 14.1157 8.95496C14.4086 9.24785 14.4086 9.72261 14.1157 10.0155L9.87347 14.2587C9.58064 14.5513 9.10579 14.5513 8.81293 14.2587C8.52008 13.9658 8.52019 13.491 8.81293 13.1981L13.0551 8.95496ZM10.934 4.00574C13.1795 1.76022 16.8203 1.76022 19.0659 4.00574C21.3111 6.2512 21.3111 9.89114 19.0659 12.1366L16.9448 14.2587C16.652 14.5514 16.1771 14.5512 15.8842 14.2587C15.5913 13.9658 15.5914 13.491 15.8842 13.1981L18.0053 11.076C19.6647 9.41638 19.6647 6.72596 18.0053 5.06628C16.3456 3.40656 13.6543 3.40656 11.9946 5.06628L9.87347 7.18738C9.58061 7.48019 9.10581 7.48015 8.81293 7.18738C8.52005 6.8945 8.52008 6.41973 8.81293 6.12683L10.934 4.00574Z" fill="#1A1A1C"/>
</svg>
