<svg width="24" height="24" viewBox="0 0 24 24" fill="none" xmlns="http://www.w3.org/2000/svg">
<path d="M7.388 9.60095C9.0477 7.94136 11.739 7.94137 13.3987 9.60095C13.6916 9.89385 13.6916 10.3696 13.3987 10.6625C13.106 10.9551 12.6311 10.9549 12.3382 10.6625C11.2643 9.58853 9.52249 9.58853 8.44855 10.6625L4.91339 14.1976C3.83951 15.2715 3.83957 17.0124 4.91339 18.0863C5.98733 19.1602 7.72812 19.1602 8.80206 18.0863L10.5706 16.3187C10.8635 16.0261 11.3384 16.0259 11.6312 16.3187C11.9239 16.6115 11.9237 17.0864 11.6312 17.3793L9.86261 19.1469C8.20288 20.8066 5.51257 20.8066 3.85284 19.1469C2.19324 17.4871 2.19317 14.7968 3.85284 13.1371L7.388 9.60095ZM13.0452 3.9447C14.7049 2.28506 17.3953 2.28515 19.055 3.9447C20.7147 5.60443 20.7147 8.29572 19.055 9.95544L15.5198 13.4906C13.8601 15.1502 11.1688 15.1503 9.50909 13.4906C9.21647 13.1978 9.21656 12.7229 9.50909 12.4301C9.80199 12.1372 10.2777 12.1372 10.5706 12.4301C11.6446 13.5036 13.3854 13.5038 14.4593 12.4301L17.9944 8.89392C19.0684 7.81998 19.0684 6.07918 17.9944 5.00525C16.9205 3.93148 15.1797 3.93139 14.1058 5.00525L12.3382 6.77283C12.0453 7.06569 11.5705 7.06562 11.2776 6.77283C10.9848 6.47993 10.9848 6.00517 11.2776 5.71228L13.0452 3.9447Z" fill="#1A1A1C"/>
</svg>
