<svg width="24" height="24" viewBox="0 0 24 24" fill="none" xmlns="http://www.w3.org/2000/svg">
<path d="M8.5 7.75024C8.91421 7.75024 9.25 8.08603 9.25 8.50024C9.24989 8.91436 8.91414 9.25024 8.5 9.25024H6.5C4.70507 9.25024 3.25 10.7053 3.25 12.5002V17.5002C3.25011 19.2951 4.70514 20.7502 6.5 20.7502H18.5C20.2949 20.7502 21.7499 19.2951 21.75 17.5002V12.5002C21.75 10.7053 20.2949 9.25024 18.5 9.25024H16.5C16.0859 9.25024 15.7501 8.91436 15.75 8.50024C15.75 8.08603 16.0858 7.75024 16.5 7.75024H18.5C21.1234 7.75024 23.25 9.87689 23.25 12.5002V17.5002C23.2499 20.1235 21.1233 22.2502 18.5 22.2502H6.5C3.87672 22.2502 1.75011 20.1235 1.75 17.5002V12.5002C1.75 9.87689 3.87665 7.75024 6.5 7.75024H8.5ZM11.2627 2.677C11.9461 1.99368 13.0539 1.99369 13.7373 2.677L16.0303 4.96997C16.3231 5.26287 16.3231 5.73766 16.0303 6.03052C15.7374 6.32327 15.2626 6.32327 14.9697 6.03052L13.25 4.31079V15.5002C13.2499 15.9144 12.9141 16.2502 12.5 16.2502C12.0859 16.2502 11.7501 15.9144 11.75 15.5002V4.31079L10.0303 6.03052C9.73741 6.32327 9.26259 6.32327 8.96973 6.03052C8.67687 5.73766 8.67694 5.26287 8.96973 4.96997L11.2627 2.677Z" fill="#1A1A1C"/>
</svg>
