<svg width="24" height="24" viewBox="0 0 24 24" fill="none" xmlns="http://www.w3.org/2000/svg">
<path d="M22.75 20.75H1.25V3.25H22.75V20.75ZM2.75 19.25H21.25V4.75H2.75V19.25ZM17.5498 8.40039C17.8811 8.15194 18.351 8.2187 18.5996 8.5498C18.8481 8.88107 18.7813 9.35102 18.4502 9.59961L13.6504 13.2002C12.6726 13.9335 11.3274 13.9335 10.3496 13.2002L5.5498 9.59961C5.2187 9.35102 5.15194 8.88107 5.40039 8.5498C5.64898 8.2187 6.11893 8.15194 6.4502 8.40039L11.25 12C11.6944 12.3333 12.3056 12.3333 12.75 12L17.5498 8.40039Z" fill="#1A1A1C"/>
</svg>
