<svg width="24" height="24" viewBox="0 0 24 24" fill="none" xmlns="http://www.w3.org/2000/svg">
<path d="M20.0303 2.2511C20.074 2.25283 20.1167 2.25782 20.1582 2.26672C20.1773 2.27085 20.1953 2.27873 20.2139 2.2843C20.2427 2.29292 20.2715 2.30074 20.2988 2.31262C20.3183 2.32108 20.3359 2.33285 20.3545 2.3429C20.3768 2.35493 20.4001 2.36488 20.4209 2.37903C20.4854 2.42268 20.5405 2.47833 20.5889 2.54016C20.6004 2.55494 20.6136 2.56847 20.624 2.58411C20.6367 2.60308 20.6453 2.62441 20.6562 2.64465C20.6685 2.66729 20.6824 2.68905 20.6924 2.71301C20.7123 2.76125 20.7285 2.81193 20.7383 2.86536C20.7454 2.90453 20.7481 2.94395 20.749 2.98254C20.7492 2.98834 20.75 2.9943 20.75 3.00012V16.0001C20.75 16.0545 20.7425 16.1072 20.7314 16.1583C20.7432 16.2706 20.75 16.3847 20.75 16.5001C20.7499 18.295 19.2949 19.7501 17.5 19.7501C15.7051 19.7501 14.2501 18.295 14.25 16.5001C14.25 14.7052 15.7051 13.2501 17.5 13.2501C18.1445 13.2501 18.7448 13.4383 19.25 13.7618V7.89758L9.75 9.62512V18.0001L9.74609 18.1671C9.6591 19.8844 8.23887 21.2501 6.5 21.2501C4.70513 21.2501 3.25009 19.795 3.25 18.0001C3.25 16.2052 4.70507 14.7501 6.5 14.7501C7.14451 14.7501 7.74476 14.9383 8.25 15.2618V4.98254C8.2501 4.97797 8.25079 4.97343 8.25098 4.96887C8.25269 4.92689 8.25729 4.88575 8.26562 4.84583C8.27134 4.81866 8.28142 4.79288 8.29004 4.76672C8.32711 4.65382 8.38763 4.55198 8.46973 4.46985L8.47656 4.46301C8.49971 4.4404 8.5257 4.42104 8.55176 4.40149C8.56212 4.39372 8.57127 4.38431 8.58203 4.37708C8.60505 4.36161 8.63039 4.34997 8.65527 4.33704C8.67474 4.32689 8.69344 4.3152 8.71387 4.30676C8.75194 4.29109 8.79166 4.27809 8.83301 4.26868C8.84238 4.26654 8.85182 4.26459 8.86133 4.26282C8.86282 4.26254 8.86471 4.26211 8.86621 4.26184L19.8457 2.26477C19.8489 2.26409 19.8522 2.26345 19.8555 2.26282L19.8662 2.26184C19.8737 2.26048 19.8812 2.25906 19.8887 2.25793C19.9022 2.25592 19.9159 2.25433 19.9297 2.25305C19.9635 2.24983 19.9971 2.24979 20.0303 2.2511ZM6.5 16.2501C5.5335 16.2501 4.75 17.0336 4.75 18.0001C4.75009 18.9665 5.53356 19.7501 6.5 19.7501C7.46644 19.7501 8.24991 18.9665 8.25 18.0001C8.25 17.0336 7.4665 16.2501 6.5 16.2501ZM17.5 14.7501C16.5335 14.7501 15.75 15.5336 15.75 16.5001C15.7501 17.4665 16.5336 18.2501 17.5 18.2501C18.4664 18.2501 19.2499 17.4665 19.25 16.5001C19.25 15.5336 18.4665 14.7501 17.5 14.7501ZM9.75 5.62512V8.10071L19.25 6.37317V3.89758L9.75 5.62512Z" fill="#1A1A1C"/>
</svg>
