<svg width="24" height="24" viewBox="0 0 24 24" fill="none" xmlns="http://www.w3.org/2000/svg">
<path d="M12.7837 3.59106C14.2481 2.12672 16.622 2.1267 18.0864 3.59106C19.5509 5.0555 19.5508 7.42932 18.0864 8.8938L9.854 17.1272C8.9754 18.0055 7.55098 18.0055 6.67236 17.1272C5.79368 16.2485 5.79368 14.8233 6.67236 13.9446L13.4907 7.12622C13.7836 6.8336 14.2585 6.83348 14.5513 7.12622C14.8441 7.41903 14.8439 7.89385 14.5513 8.18677L7.73291 15.0051C7.44008 15.298 7.4402 15.7728 7.73291 16.0657C8.0258 16.3586 8.50056 16.3586 8.79346 16.0657L17.0259 7.83325C17.9045 6.95456 17.9045 5.53026 17.0259 4.65161C16.1472 3.77303 14.7229 3.77306 13.8442 4.65161L5.7124 12.7834C4.248 14.2479 4.24812 16.6217 5.7124 18.0862C7.17687 19.5506 9.55067 19.5506 11.0151 18.0862L17.7329 11.3694C18.0258 11.0765 18.5006 11.0765 18.7935 11.3694C19.0864 11.6623 19.0864 12.137 18.7935 12.4299L12.0767 19.1477C10.0265 21.1978 6.70213 21.1976 4.65186 19.1477C2.60161 17.0975 2.60161 13.7732 4.65186 11.7229L12.7837 3.59106Z" fill="#1A1A1C"/>
</svg>
