<svg width="24" height="24" viewBox="0 0 24 24" fill="none" xmlns="http://www.w3.org/2000/svg">
<path d="M19.6713 1.63611C21.2851 1.42504 22.6157 2.75571 22.4047 4.36951C22.0962 6.72843 21.2492 10.7359 18.8539 13.3187C18.0919 14.1404 17.1697 14.8981 16.2231 15.5726L16.5004 17.5111C16.5783 18.0563 16.3947 18.606 16.0053 18.9955L12.8237 22.1781C11.804 23.1975 10.0581 22.6152 9.85394 21.1879L9.42914 18.2181L9.435 18.2172C9.16316 18.086 8.90941 17.9102 8.68988 17.6908L6.35101 15.351C6.13134 15.1312 5.95491 14.878 5.82367 14.6058L5.82269 14.6127L2.85297 14.1879C1.42573 13.9837 0.844293 12.2378 1.86371 11.2181L5.04535 8.03552C5.4347 7.64626 5.98468 7.46369 6.52972 7.54138L8.4682 7.81775C9.14275 6.87116 9.90143 5.94992 10.7231 5.18787C13.3058 2.79274 17.3124 1.94468 19.6713 1.63611ZM7.51996 19.7035C7.81286 19.4107 8.28863 19.4106 8.58148 19.7035C8.8739 19.9964 8.87409 20.4713 8.58148 20.764L7.16644 22.1781C6.87352 22.4707 6.39868 22.4709 6.1059 22.1781C5.81317 21.8853 5.81335 21.4105 6.1059 21.1176L7.51996 19.7035ZM5.39886 17.5814C5.69166 17.2888 6.16654 17.2889 6.45941 17.5814C6.75226 17.8743 6.75217 18.3491 6.45941 18.642L3.63129 21.4711C3.33844 21.7637 2.86359 21.7637 2.57074 21.4711C2.27791 21.1782 2.27802 20.7034 2.57074 20.4105L5.39886 17.5814ZM14.8403 16.4935C13.65 17.2363 12.5215 17.8277 11.7211 18.2201C11.4803 18.3382 11.2298 18.4136 10.978 18.4525L11.3383 20.976C11.3676 21.1796 11.6175 21.263 11.7631 21.1176L14.9448 17.9349C15.0003 17.8793 15.0271 17.8008 15.0161 17.723L14.8403 16.4935ZM3.27777 15.4603C3.57064 15.1676 4.04546 15.1676 4.33832 15.4603C4.63117 15.7532 4.63107 16.228 4.33832 16.5209L2.92426 17.9349C2.63136 18.2278 2.1566 18.2278 1.86371 17.9349C1.57091 17.642 1.57085 17.1673 1.86371 16.8744L3.27777 15.4603ZM7.76801 11.8187C7.5384 12.2464 7.33482 12.6394 7.16742 12.9808C6.95934 13.4056 7.04874 13.9273 7.41156 14.2904L9.75043 16.6302C10.1136 16.9931 10.6362 17.0816 11.061 16.8734C11.4024 16.706 11.7956 16.5033 12.2231 16.2738L7.76801 11.8187ZM19.8666 3.12439C17.5433 3.42825 13.9556 4.23515 11.7426 6.28748C10.5069 7.43355 9.40168 9.01307 8.53363 10.4633L13.5786 15.5082C15.0287 14.6401 16.6083 13.5349 17.7543 12.2992C19.8066 10.0863 20.6135 6.49848 20.9174 4.17517C21.0007 3.53831 20.5035 3.0412 19.8666 3.12439ZM6.31781 9.02576C6.24011 9.01479 6.16143 9.04063 6.1059 9.09607L2.92426 12.2787C2.77878 12.4244 2.86198 12.6744 3.06586 12.7035L5.58832 13.0629C5.62729 12.8113 5.70284 12.5613 5.82074 12.3207C6.21313 11.5203 6.80441 10.3911 7.5473 9.20056L6.31781 9.02576ZM13.1772 6.97498C14.2511 5.90117 15.9929 5.90108 17.0668 6.97498C18.1406 8.04889 18.1406 9.79073 17.0668 10.8646C15.9929 11.9385 14.2511 11.9384 13.1772 10.8646C12.1032 9.79068 12.1032 8.04892 13.1772 6.97498ZM16.0053 8.03552C15.5172 7.54773 14.7258 7.5476 14.2377 8.03552C13.7497 8.52357 13.7499 9.31492 14.2377 9.8031C14.7259 10.2913 15.5172 10.2913 16.0053 9.8031C16.4933 9.31493 16.4934 8.52363 16.0053 8.03552Z" fill="#1A1A1C"/>
</svg>
