<svg width="24" height="24" viewBox="0 0 24 24" fill="none" xmlns="http://www.w3.org/2000/svg">
<path d="M13.5728 2.23682C14.1672 1.99058 15.0515 1.6477 15.9303 1.99268C16.0535 2.04111 16.1764 2.09222 16.2974 2.14502C17.1622 2.52258 17.5452 3.38966 17.7916 3.98389C17.9341 4.32756 18.0365 4.60437 18.1676 4.87939C18.294 5.14452 18.414 5.33171 18.5406 5.4585L18.647 5.55225C18.7654 5.6453 18.9208 5.73671 19.1197 5.83154C19.3946 5.96253 19.6716 6.06515 20.0152 6.20752C20.6095 6.45375 21.4772 6.83621 21.8551 7.70068C21.908 7.82179 21.9589 7.94447 22.0074 8.06787C22.3531 8.94691 22.0104 9.83245 21.7642 10.4272C21.6218 10.7712 21.4979 11.0393 21.3961 11.3267C21.2978 11.6039 21.2506 11.8212 21.2506 12.0005L21.2594 12.1421C21.2773 12.2916 21.3224 12.4655 21.3961 12.6733C21.498 12.9607 21.6218 13.2287 21.7642 13.5728C22.0104 14.1673 22.3524 15.0523 22.0064 15.9312C21.958 16.0542 21.9079 16.1766 21.8551 16.2974C21.4771 17.1618 20.6096 17.5451 20.0152 17.7915C19.6716 17.934 19.3946 18.0364 19.1197 18.1675C18.9207 18.2624 18.7655 18.3537 18.647 18.4468L18.5406 18.5405C18.414 18.6673 18.2939 18.8545 18.1676 19.1196C18.0365 19.3946 17.934 19.6715 17.7916 20.0151C17.5453 20.6094 17.1628 21.477 16.2984 21.855C16.1773 21.9079 16.0546 21.9588 15.9312 22.0073C15.0524 22.3531 14.1673 22.0103 13.5728 21.7642C13.2289 21.6217 12.9607 21.4979 12.6734 21.396C12.4657 21.3224 12.2917 21.2772 12.1422 21.2593L12.0006 21.2505C11.8213 21.2505 11.6039 21.2978 11.3267 21.396C11.0394 21.4978 10.7712 21.6218 10.4273 21.7642C9.83255 22.0103 8.94697 22.353 8.06795 22.0073C7.94478 21.9589 7.82262 21.9078 7.70174 21.855C6.83688 21.4771 6.45364 20.6095 6.2076 20.0151C6.06524 19.6713 5.96363 19.3937 5.8326 19.1187C5.73784 18.9198 5.64628 18.7653 5.5533 18.647L5.45955 18.5405C5.33277 18.4138 5.14572 18.294 4.88045 18.1675C4.60523 18.0363 4.32788 17.9341 3.98396 17.7915C3.38952 17.545 2.52274 17.1613 2.1451 16.2964C2.09246 16.1757 2.04104 16.0531 1.99275 15.9302C1.64775 15.0513 1.99066 14.1671 2.23689 13.5728C2.3794 13.2288 2.50314 12.9607 2.60506 12.6733C2.67874 12.4656 2.72383 12.2916 2.74178 12.1421L2.75056 12.0005C2.75056 11.8213 2.70318 11.6046 2.60506 11.3276C2.50316 11.0402 2.37941 10.7714 2.23689 10.4272C1.99063 9.83256 1.64768 8.94792 1.99275 8.06885C2.041 7.946 2.09251 7.8242 2.1451 7.70361C2.52254 6.83832 3.38945 6.4548 3.98396 6.2085C4.32781 6.06606 4.60531 5.96361 4.88045 5.83252C5.14568 5.70611 5.33282 5.58613 5.45955 5.45947L5.5533 5.35303C5.64638 5.23462 5.73773 5.07944 5.8326 4.88037C5.96369 4.60524 6.06611 4.3278 6.20857 3.98389C6.45486 3.38937 6.83831 2.52145 7.70369 2.14404C7.82413 2.09153 7.94623 2.04086 8.06892 1.99268C8.94794 1.64774 9.83269 1.99057 10.4273 2.23682C10.7714 2.37931 11.0403 2.5031 11.3277 2.60498C11.6046 2.70307 11.8214 2.75049 12.0006 2.75049L12.1422 2.7417C12.2916 2.72374 12.4657 2.67864 12.6734 2.60498C12.9607 2.50308 13.2289 2.37931 13.5728 2.23682ZM15.3824 3.38916C15.1348 3.2919 14.796 3.35369 14.147 3.62256C13.8693 3.73762 13.5099 3.89907 13.1744 4.01807C12.8286 4.14069 12.4264 4.25036 12.0006 4.25049C11.5745 4.25049 11.1717 4.14166 10.8258 4.01904C10.4902 3.90009 10.131 3.73764 9.8531 3.62256C9.20396 3.35376 8.86463 3.29195 8.61678 3.38916C8.51141 3.43055 8.40674 3.47394 8.3033 3.51904C8.05939 3.62542 7.86324 3.90897 7.59431 4.55811C7.47922 4.83596 7.33928 5.20445 7.18611 5.52588C7.04793 5.81583 6.87219 6.12922 6.62849 6.40479L6.5201 6.52002C6.21894 6.82107 5.85716 7.02818 5.52596 7.18604C5.20463 7.33916 4.83601 7.47915 4.55818 7.59424C3.90914 7.86314 3.62554 8.05935 3.51912 8.30322C3.47399 8.40671 3.43064 8.51128 3.38924 8.6167C3.29189 8.86457 3.35375 9.20365 3.62263 9.85303C3.73772 10.1309 3.90015 10.4901 4.01912 10.8257C4.14176 11.1717 4.25056 11.5744 4.25056 12.0005C4.25044 12.4264 4.14078 12.8285 4.01814 13.1743C3.89915 13.5098 3.73771 13.8692 3.62263 14.147C3.35372 14.7961 3.29196 15.1347 3.38924 15.3823C3.43065 15.4877 3.47398 15.5923 3.51912 15.6958C3.62566 15.9399 3.90995 16.1366 4.55916 16.4058C4.83694 16.5209 5.20484 16.6609 5.52596 16.814C5.85716 16.9719 6.21896 17.1789 6.5201 17.48L6.62849 17.5952C6.87216 17.8708 7.04799 18.1842 7.18611 18.4741C7.33913 18.7953 7.47837 19.1632 7.59334 19.4409C7.86207 20.09 8.05844 20.3734 8.30232 20.48C8.40634 20.5254 8.51179 20.5692 8.61775 20.6108C8.86535 20.708 9.20416 20.647 9.8531 20.3784C10.1309 20.2634 10.4903 20.1008 10.8258 19.9819C11.1717 19.8594 11.5746 19.7505 12.0006 19.7505C12.4263 19.7506 12.8287 19.8594 13.1744 19.9819C13.5098 20.1009 13.8694 20.2634 14.147 20.3784C14.7958 20.647 15.1341 20.708 15.3814 20.6108C15.4875 20.5691 15.5937 20.5255 15.6978 20.48C15.9416 20.3731 16.1372 20.0893 16.4058 19.4409C16.5209 19.1632 16.6609 18.7953 16.814 18.4741C16.9719 18.143 17.179 17.7811 17.4801 17.48L17.5953 17.3716C17.8706 17.1281 18.1835 16.9522 18.4732 16.814C18.7945 16.6607 19.1632 16.5209 19.441 16.4058C20.0894 16.1369 20.3731 15.9408 20.4801 15.6968C20.5255 15.5928 20.5692 15.4872 20.6109 15.3813C20.7082 15.1341 20.6471 14.7958 20.3785 14.147C20.2635 13.8693 20.101 13.5098 19.982 13.1743C19.8594 12.8286 19.7507 12.4263 19.7506 12.0005C19.7506 11.5744 19.8594 11.1717 19.982 10.8257C20.1009 10.4901 20.2635 10.1309 20.3785 9.85303C20.6471 9.204 20.7082 8.86528 20.6109 8.61768C20.5692 8.51166 20.5255 8.40632 20.4801 8.30225C20.3734 8.05823 20.0899 7.86214 19.441 7.59326C19.1633 7.47821 18.7954 7.33816 18.4742 7.18506C18.1843 7.04688 17.8708 6.87107 17.5953 6.62744L17.4801 6.51904C17.1792 6.21793 16.9719 5.85599 16.814 5.5249C16.661 5.20379 16.5209 4.83568 16.4058 4.55811C16.1371 3.91009 15.9414 3.62671 15.6978 3.52002C15.5939 3.47466 15.4883 3.43077 15.3824 3.38916ZM13.6422 13.6421C13.9513 13.3331 14.4522 13.333 14.7613 13.6421C15.0702 13.9512 15.0703 14.4522 14.7613 14.7612C14.4522 15.0703 13.9513 15.0702 13.6422 14.7612C13.3331 14.4521 13.3331 13.9512 13.6422 13.6421ZM13.7086 9.23096C14.0015 8.93806 14.4762 8.93806 14.7691 9.23096C15.062 9.52385 15.062 9.99863 14.7691 10.2915L10.2916 14.769C9.99869 15.0618 9.52389 15.0618 9.23103 14.769C8.93818 14.4762 8.93827 14.0014 9.23103 13.7085L13.7086 9.23096ZM9.23885 9.23877C9.5479 8.92983 10.0489 8.92989 10.358 9.23877C10.6671 9.54785 10.667 10.0488 10.358 10.3579C10.0489 10.667 9.54796 10.667 9.23885 10.3579C8.92993 10.0488 8.9298 9.54782 9.23885 9.23877Z" fill="#1A1A1C"/>
</svg>
