<svg width="24" height="24" viewBox="0 0 24 24" fill="none" xmlns="http://www.w3.org/2000/svg">
<path d="M19.4865 2.04797C21.0107 1.54007 22.4602 2.9895 21.9523 4.51379L16.8966 19.6837C16.363 21.2846 14.1849 21.4982 13.3507 20.0314L10.256 14.588C10.0558 14.236 9.76422 13.9444 9.41223 13.7443L3.96887 10.6495C2.50199 9.81538 2.71563 7.63825 4.31653 7.10461L19.4865 2.04797ZM20.5294 4.04016C20.6467 3.6884 20.3118 3.35366 19.9601 3.47083L4.79114 8.52747C4.4217 8.65061 4.37253 9.15235 4.71106 9.34485L10.1534 12.4406C10.226 12.4818 10.2969 12.5256 10.3663 12.5714L12.255 10.6847C12.5479 10.3918 13.0227 10.3918 13.3156 10.6847C13.6084 10.9776 13.6084 11.4524 13.3156 11.7452L11.4279 13.632C11.4741 13.7019 11.5181 13.7736 11.5597 13.8468L14.6554 19.2902C14.848 19.6279 15.3494 19.5788 15.4728 19.2101L20.5294 4.04016Z" fill="#1A1A1C"/>
</svg>
