<svg width="24" height="24" viewBox="0 0 24 24" fill="none" xmlns="http://www.w3.org/2000/svg">
<path d="M12.0001 1.25C12.9125 1.25004 13.8 1.36348 14.6476 1.57812C15.3384 1.75314 15.695 2.35026 15.8097 2.84668C15.9455 3.43462 16.3135 3.96377 16.8751 4.28809L17.0714 4.38867C17.5351 4.59926 18.0397 4.63838 18.5109 4.52734C18.9753 4.41777 19.6116 4.46044 20.0704 4.91016L20.1603 5.00586L20.4747 5.39062C21.1895 6.30599 21.7592 7.34045 22.1495 8.45996C22.4148 9.22089 22.0041 9.90597 21.5695 10.2646C21.068 10.6783 20.7501 11.3018 20.7501 12C20.7501 12.6979 21.0679 13.3208 21.5695 13.7344C22.0042 14.093 22.4148 14.7782 22.1495 15.5391C21.7032 16.8189 21.022 17.9867 20.1583 18.9932C19.696 19.5318 19.0062 19.5882 18.5109 19.4717C18.0399 19.3609 17.5352 19.4006 17.0714 19.6113L16.8751 19.7119C16.3137 20.0362 15.9456 20.5648 15.8097 21.1523C15.695 21.6487 15.3381 22.2458 14.6476 22.4209C13.8002 22.6358 12.9129 22.75 12.0001 22.75C11.0869 22.75 10.1987 22.6359 9.35071 22.4209C8.66039 22.2457 8.30312 21.6489 8.1886 21.1523C8.06994 20.6379 7.77414 20.169 7.32629 19.8428L7.12512 19.7119C6.60982 19.4145 6.02703 19.3449 5.4884 19.4717C4.993 19.5883 4.30142 19.5322 3.83899 18.9932C2.97576 17.9868 2.29573 16.8184 1.84973 15.5391C1.58454 14.7782 1.99479 14.092 2.42981 13.7334C2.93191 13.3196 3.25012 12.6977 3.25012 12C3.25012 11.302 2.93184 10.6794 2.42981 10.2656C1.99492 9.907 1.58449 9.22094 1.84973 8.45996L2.02747 7.98535C2.46828 6.89104 3.08364 5.88644 3.83899 5.00586C4.30146 4.46676 4.99284 4.4105 5.4884 4.52734C6.02732 4.65446 6.60999 4.5854 7.12512 4.28809L7.32629 4.15723C7.77423 3.83094 8.07 3.36146 8.1886 2.84668C8.30309 2.35003 8.66019 1.75318 9.35071 1.57812L9.67102 1.50293C10.4217 1.33727 11.2015 1.25002 12.0001 1.25ZM12.0001 2.75C11.2146 2.75003 10.4522 2.84685 9.72571 3.03027C9.7232 3.03214 9.71839 3.03623 9.71204 3.04395C9.6917 3.06876 9.66595 3.11667 9.65051 3.18359C9.42591 4.15853 8.81307 5.04525 7.87512 5.58691C7.01427 6.08384 6.03787 6.1983 5.14368 5.9873C5.07736 5.97171 5.02352 5.97426 4.99231 5.98145C4.97204 5.9862 4.96884 5.99029 4.97278 5.9873C4.23304 6.85096 3.65027 7.85194 3.2677 8.94629C3.26853 8.9392 3.26511 8.94361 3.27454 8.96777C3.2887 9.0038 3.3238 9.0577 3.38391 9.10742C4.21596 9.79329 4.75012 10.8341 4.75012 12C4.75012 13.166 4.21583 14.2061 3.38391 14.8916C3.32374 14.9413 3.2887 14.9952 3.27454 15.0312C3.26477 15.0563 3.26894 15.06 3.2677 15.0518C3.65012 16.1462 4.23301 17.1469 4.97278 18.0107C4.97518 18.012 4.98134 18.015 4.99231 18.0176C5.02352 18.0248 5.07733 18.0273 5.14368 18.0117C6.03807 17.8011 7.01469 17.9164 7.87512 18.4131C8.81265 18.9546 9.42572 19.8408 9.65051 20.8154C9.66597 20.8823 9.69168 20.9302 9.71204 20.9551C9.71795 20.9623 9.72316 20.9657 9.72571 20.9678C10.4526 21.1516 11.2147 21.25 12.0001 21.25L12.2941 21.2451C12.9748 21.2238 13.6365 21.1283 14.2716 20.9678C14.274 20.9659 14.2796 20.9621 14.2863 20.9541C14.3067 20.9291 14.3333 20.8813 14.3488 20.8145C14.5742 19.8396 15.1881 18.9542 16.1251 18.4131C16.9852 17.9166 17.9608 17.8014 18.8546 18.0117C18.9209 18.0273 18.9747 18.0248 19.006 18.0176C19.0159 18.0153 19.0217 18.0121 19.0245 18.0107C19.7648 17.1467 20.348 16.1463 20.7306 15.0518C20.7299 15.048 20.7286 15.0411 20.7247 15.0312C20.7105 14.9952 20.6756 14.9413 20.6154 14.8916C19.7837 14.2059 19.2501 13.1655 19.2501 12C19.2501 10.8346 19.7826 9.7935 20.6144 9.10742C20.6749 9.05753 20.7105 9.00395 20.7247 8.96777C20.7289 8.95708 20.73 8.94991 20.7306 8.94629C20.3479 7.85182 19.7654 6.851 19.0255 5.9873C19.0225 5.98596 19.0163 5.98361 19.007 5.98145C18.9757 5.9743 18.9219 5.97168 18.8556 5.9873C17.9616 6.19812 16.9857 6.08367 16.1251 5.58691C15.1877 5.04561 14.573 4.15971 14.3478 3.18457C14.3323 3.11769 14.3066 3.06989 14.2863 3.04492C14.2792 3.03633 14.2738 3.03192 14.2716 3.03027C13.6368 2.87009 12.9749 2.77611 12.2941 2.75488L12.0001 2.75ZM12.0001 8.25C14.0711 8.25007 15.7501 9.92898 15.7501 12C15.7501 14.071 14.0711 15.7499 12.0001 15.75C9.92905 15.75 8.25012 14.0711 8.25012 12C8.25012 9.92893 9.92905 8.25 12.0001 8.25ZM12.0001 9.75C10.7575 9.75 9.75012 10.7574 9.75012 12C9.75012 13.2426 10.7575 14.25 12.0001 14.25C13.2427 14.2499 14.2501 13.2426 14.2501 12C14.2501 10.7574 13.2427 9.75007 12.0001 9.75Z" fill="#1A1A1C"/>
</svg>
