<svg width="24" height="24" viewBox="0 0 24 24" fill="none" xmlns="http://www.w3.org/2000/svg">
<path d="M11.1504 1.61389C11.6788 1.32051 12.3212 1.32051 12.8496 1.61389L19.8496 5.50256C20.4051 5.81114 20.7499 6.39745 20.75 7.03284V11.6715C20.7499 15.5753 18.6331 19.172 15.2207 21.068L12.8496 22.3854C12.3212 22.6789 11.6788 22.6789 11.1504 22.3854L8.7793 21.068C5.36686 19.172 3.25013 15.5753 3.25 11.6715V7.03284C3.25015 6.39745 3.59494 5.81115 4.15039 5.50256L11.1504 1.61389ZM12.1211 2.92542C12.0457 2.88366 11.9543 2.88366 11.8789 2.92542L4.87891 6.81409C4.79966 6.85811 4.75015 6.9422 4.75 7.03284V11.6715C4.75013 15.0306 6.57146 18.1261 9.50781 19.7574L11.8789 21.0739C11.9544 21.1157 12.0456 21.1157 12.1211 21.0739L14.4922 19.7574C17.4285 18.1261 19.2499 15.0306 19.25 11.6715V7.03284C19.2499 6.9422 19.2003 6.85811 19.1211 6.81409L12.1211 2.92542Z" fill="#1A1A1C"/>
</svg>
