<svg width="24" height="24" viewBox="0 0 24 24" fill="none" xmlns="http://www.w3.org/2000/svg">
<path d="M10.3286 2.32141C11.0865 1.06247 12.9124 1.06256 13.6704 2.32141L16.0005 6.19446C16.0632 6.29869 16.1662 6.37292 16.2847 6.40051L20.688 7.42004C22.1198 7.75175 22.6837 9.48883 21.7202 10.5988L18.7573 14.0118C18.678 14.1037 18.6386 14.2239 18.6489 14.3448L19.0396 18.8478C19.1666 20.3121 17.6898 21.385 16.3364 20.8116L12.1753 19.049C12.0632 19.0016 11.9358 19.0015 11.8237 19.049L7.6626 20.8116C6.30939 21.3846 4.83251 20.3119 4.95947 18.8478L5.3501 14.3448C5.36048 14.2238 5.32123 14.1037 5.2417 14.0118L2.27881 10.5988C1.31564 9.48894 1.87963 7.752 3.31104 7.42004L7.71436 6.40051C7.8329 6.37302 7.93571 6.29866 7.99854 6.19446L10.3286 2.32141ZM12.3853 3.09485C12.2103 2.80471 11.7887 2.80462 11.6138 3.09485L9.28369 6.9679C9.0114 7.42015 8.56654 7.74332 8.05225 7.86243L3.6499 8.88196C3.31988 8.95874 3.18959 9.35933 3.41162 9.61536L6.37451 13.0284C6.72037 13.4271 6.8898 13.9489 6.84424 14.4747L6.45361 18.9777C6.42442 19.3153 6.76549 19.5627 7.07764 19.4308L11.2388 17.6681C11.7249 17.4622 12.2741 17.4623 12.7603 17.6681L16.9214 19.4308C17.2337 19.5631 17.5747 19.3155 17.5454 18.9777L17.1548 14.4747C17.1092 13.9491 17.2788 13.427 17.6245 13.0284L20.5874 9.61536C20.8098 9.35921 20.6796 8.95849 20.3491 8.88196L15.9468 7.86243C15.4326 7.74321 14.9875 7.42017 14.7153 6.9679L12.3853 3.09485Z" fill="#1A1A1C"/>
</svg>
