<svg width="24" height="24" viewBox="0 0 24 24" fill="none" xmlns="http://www.w3.org/2000/svg">
<path d="M7.99984 5.0719C9.27755 4.33421 10.7344 3.96422 12.2093 4.00284C13.6841 4.04146 15.1196 4.48719 16.3569 5.29074C17.5943 6.09429 18.5854 7.22436 19.2205 8.55601C19.8557 9.88767 20.1102 11.369 19.956 12.8363M7.64869 2.00015L6.70061 5.1011C6.53913 5.62925 6.83638 6.1883 7.36453 6.34978L10.4655 7.29786M15.9999 18.9282C14.7222 19.6659 13.2654 20.0359 11.7905 19.9973C10.3156 19.9587 8.88017 19.5129 7.64281 18.7094C6.40545 17.9058 5.41441 16.7758 4.77924 15.4441C4.14408 14.1125 3.88953 12.6311 4.04375 11.1638M16.3511 22L17.2992 18.899C17.4606 18.3709 17.1634 17.8118 16.6352 17.6503L13.5343 16.7023" stroke="#1A1A1C" stroke-width="1.5" stroke-linecap="round"/>
</svg>
