<svg width="24" height="24" viewBox="0 0 24 24" fill="none" xmlns="http://www.w3.org/2000/svg">
<path d="M13.5586 2.25C14.7422 2.25005 15.7927 3.00796 16.167 4.13086L16.541 5.25H17.582C19.6082 5.25 20.7655 7.5636 19.5498 9.18457C19.031 9.87633 18.7501 10.7173 18.75 11.582V18C18.75 20.6234 16.6234 22.75 14 22.75H10C7.37665 22.75 5.25 20.6233 5.25 18V11.582C5.24995 10.7173 4.969 9.87633 4.4502 9.18457C3.23448 7.5636 4.39176 5.25001 6.41797 5.25H7.45898L7.83301 4.13086C8.20731 3.00796 9.25777 2.25005 10.4414 2.25H13.5586ZM6.41797 6.75C5.62788 6.75001 5.17645 7.65207 5.65039 8.28418C6.36395 9.2356 6.74995 10.3928 6.75 11.582V18C6.75 19.7949 8.20508 21.25 10 21.25H14C15.7949 21.25 17.25 19.7949 17.25 18V11.582C17.2501 10.3928 17.6361 9.23559 18.3496 8.28418C18.8236 7.65207 18.3721 6.75 17.582 6.75H6.41797ZM10 10.25C10.4142 10.25 10.75 10.5858 10.75 11V17C10.75 17.4142 10.4142 17.75 10 17.75C9.58579 17.75 9.25 17.4142 9.25 17V11C9.25 10.5858 9.58579 10.25 10 10.25ZM14 10.25C14.4142 10.25 14.75 10.5858 14.75 11V17C14.75 17.4142 14.4142 17.75 14 17.75C13.5858 17.75 13.25 17.4142 13.25 17V11C13.25 10.5858 13.5858 10.25 14 10.25ZM10.4414 3.75C9.90351 3.75005 9.42606 4.09425 9.25586 4.60449L9.04102 5.25H14.959L14.7441 4.60449C14.5739 4.09424 14.0965 3.75005 13.5586 3.75H10.4414Z" fill="#1A1A1C"/>
</svg>
