<svg width="24" height="24" viewBox="0 0 24 24" fill="none" xmlns="http://www.w3.org/2000/svg">
<path d="M10.2021 4.29041C11.9837 2.75137 14.7496 4.01634 14.75 6.37048V18.3617C14.7497 20.7158 11.9838 21.9815 10.2021 20.4427L6.87305 17.5668C6.64601 17.3707 6.35566 17.2631 6.05566 17.2631H4.5C2.70521 17.2631 1.25022 15.8078 1.25 14.0131V10.7201C1.25001 8.92518 2.70509 7.47011 4.5 7.47009H6.05566C6.35558 7.47009 6.64603 7.36236 6.87305 7.16638L10.2021 4.29041ZM13.25 6.37048C13.2496 5.30059 11.9924 4.72567 11.1826 5.42517L7.85352 8.30115C7.35402 8.73255 6.71567 8.97009 6.05566 8.97009H4.5C3.53351 8.9701 2.75001 9.7536 2.75 10.7201V14.0131C2.75022 14.9794 3.53364 15.7631 4.5 15.7631H6.05566C6.71576 15.7631 7.35399 16.0005 7.85352 16.432L11.1826 19.308C11.9924 20.0072 13.2497 19.4315 13.25 18.3617V6.37048ZM21.7119 9.349C22.0048 9.05611 22.4805 9.05611 22.7734 9.349C23.0658 9.64191 23.0661 10.1168 22.7734 10.4095L21.1816 12.0004L22.7734 13.5912C23.066 13.884 23.066 14.3589 22.7734 14.6517C22.4805 14.9446 22.0048 14.9446 21.7119 14.6517L20.1211 13.0609L18.5303 14.6517C18.2374 14.9446 17.7626 14.9446 17.4697 14.6517C17.1769 14.3588 17.1768 13.8841 17.4697 13.5912L19.0605 12.0004L17.4697 10.4095C17.1769 10.1167 17.177 9.64191 17.4697 9.349C17.7626 9.05611 18.2374 9.05611 18.5303 9.349L20.1211 10.9388L21.7119 9.349Z" fill="#1A1A1C"/>
</svg>
