<svg width="24" height="24" viewBox="0 0 24 24" fill="none" xmlns="http://www.w3.org/2000/svg">
<path d="M11.2021 4.29041C12.9837 2.75137 15.7496 4.01634 15.75 6.37048V18.3617C15.7497 20.7158 12.9838 21.9815 11.2021 20.4427L7.87305 17.5668C7.64601 17.3707 7.35566 17.2631 7.05566 17.2631H5.5C3.70521 17.2631 2.25022 15.8078 2.25 14.0131V10.7201C2.25001 8.92518 3.70509 7.47011 5.5 7.47009H7.05566C7.35558 7.47009 7.64603 7.36236 7.87305 7.16638L11.2021 4.29041ZM14.25 6.37048C14.2496 5.30059 12.9924 4.72567 12.1826 5.42517L8.85352 8.30115C8.35402 8.73255 7.71567 8.97009 7.05566 8.97009H5.5C4.53351 8.9701 3.75001 9.7536 3.75 10.7201V14.0131C3.75022 14.9794 4.53364 15.7631 5.5 15.7631H7.05566C7.71576 15.7631 8.35399 16.0005 8.85352 16.432L12.1826 19.308C12.9924 20.0072 14.2497 19.4315 14.25 18.3617V6.37048ZM17.5498 8.76697C17.8809 8.51838 18.3508 8.58536 18.5996 8.91638C19.3217 9.8774 19.75 11.0731 19.75 12.3666C19.75 13.6601 19.3216 14.8557 18.5996 15.8168C18.3508 16.1478 17.8809 16.2148 17.5498 15.9662C17.2188 15.7174 17.1518 15.2475 17.4004 14.9164C17.934 14.2061 18.25 13.3241 18.25 12.3666C18.25 11.409 17.9341 10.527 17.4004 9.81677C17.1518 9.48564 17.2187 9.01573 17.5498 8.76697Z" fill="#1A1A1C"/>
</svg>
