<svg width="24" height="24" viewBox="0 0 24 24" fill="none" xmlns="http://www.w3.org/2000/svg">
<path d="M18 12.2504C18.4142 12.2504 18.75 12.5862 18.75 13.0004V18.3617C18.7497 20.7158 15.9838 21.9815 14.2021 20.4427L13.9307 20.2084L12.5312 19.0853C12.2082 18.8263 12.1563 18.3548 12.415 18.0316C12.6741 17.7085 13.1456 17.6564 13.4688 17.9154L14.8691 19.0375L14.8906 19.0551L15.1826 19.308C15.9924 20.0072 17.2497 19.4315 17.25 18.3617V13.0004C17.25 12.5862 17.5858 12.2504 18 12.2504ZM14.2021 4.29041C15.9837 2.75137 18.7496 4.01634 18.75 6.37048V7.18982L21.4697 4.47009C21.7626 4.17721 22.2374 4.1772 22.5303 4.47009C22.823 4.763 22.8231 5.23781 22.5303 5.53064L10.7998 17.2611V17.2631H10.7979L7.53027 20.5306C7.23743 20.8233 6.76257 20.8233 6.46973 20.5306C6.1769 20.2378 6.17704 19.763 6.46973 19.4701L8.67676 17.2631H8.5C6.70521 17.2631 5.25022 15.8078 5.25 14.0131V10.7201C5.25001 8.92518 6.70509 7.47011 8.5 7.47009H10.0557C10.3556 7.47009 10.646 7.36236 10.873 7.16638L14.2021 4.29041ZM17.25 6.37048C17.2496 5.30059 15.9924 4.72567 15.1826 5.42517L11.8535 8.30115C11.354 8.73255 10.7157 8.97009 10.0557 8.97009H8.5C7.53351 8.9701 6.75001 9.7536 6.75 10.7201V14.0131C6.75022 14.9794 7.53364 15.7631 8.5 15.7631H10.1768L17.25 8.68982V6.37048Z" fill="#1A1A1C"/>
</svg>
