<svg width="24" height="24" viewBox="0 0 24 24" fill="none" xmlns="http://www.w3.org/2000/svg">
<path d="M14.4414 2.17334C16.7549 1.69714 18.9457 3.11399 19.5723 5.25049H22.75V22.7505H1.25V5.25049H3.21094C3.94013 4.61102 4.83725 4.15048 5.84082 3.94385L14.4414 2.17334ZM3.83008 6.75049C3.15535 7.50774 2.75007 8.50121 2.75 9.57568V21.2505H21.25V17.2505H17.5C15.7052 17.2505 14.2503 15.7952 14.25 14.0005C14.25 12.2056 15.7051 10.7505 17.5 10.7505H21.25V6.75049H3.83008ZM12 16.7505C12.4142 16.7505 12.75 17.0863 12.75 17.5005C12.7497 17.9145 12.4141 18.2505 12 18.2505H6C5.58595 18.2505 5.25026 17.9145 5.25 17.5005C5.25 17.0863 5.58579 16.7505 6 16.7505H12ZM17.5 12.2505C16.5335 12.2505 15.75 13.034 15.75 14.0005C15.7503 14.9668 16.5337 15.7505 17.5 15.7505H21.25V12.2505H17.5ZM17.7002 13.2505C18.1143 13.2506 18.4502 13.5863 18.4502 14.0005C18.4499 14.4144 18.1142 14.7504 17.7002 14.7505H17.5C17.0859 14.7505 16.7503 14.4145 16.75 14.0005C16.75 13.5863 17.0858 13.2505 17.5 13.2505H17.7002ZM17.9707 5.25049C17.4166 4.08234 16.113 3.36053 14.7441 3.64209L6.93457 5.25049H17.9707Z" fill="#1A1A1C"/>
</svg>
